<mxfile host="app.diagrams.net" modified="2024-06-24T04:08:55.050Z" agent="Mozilla/5.0 (Windows NT 10.0; Win64; x64) AppleWebKit/537.36 (KHTML, like Gecko) Chrome/126.0.0.0 Safari/537.36" version="24.6.2" etag="4yWdTaE0LaHlb4Cyo2sI" type="github">
  <diagram name="ページ1" id="J82WmbOzsomFr6jDAw59">
    <mxGraphModel>
      <root>
        <mxCell id="0" />
        <mxCell id="1" parent="0" />
      </root>
    </mxGraphModel>
  </diagram>
</mxfile>
